<svg class="svg-icon" style="width: 1em;height: 1em;vertical-align: middle;fill: currentColor;overflow: hidden;" viewBox="0 0 1024 1024" version="1.1" xmlns="http://www.w3.org/2000/svg"><path d="M482.49884 113.465998a1809.215345 1809.215345 0 0 1 185.516908 52.76169c64.675619 20.42388 131.053228 41.415089 174.737637 51.627029H852.397995v319.406786c0 307.492856-353.446585 422.660844-370.466485 427.199484C466.613601 959.922347 114.869005 844.754358 114.869005 537.261503V221.258697h9.64461c43.684409-10.21194 110.062018-31.77048 174.737638-52.194359A1779.146855 1779.146855 0 0 1 482.49884 113.465998m0-56.732999c-45.953729 0-272.885726 83.397509-371.033814 107.225369C84.233186 170.198998 58.136006 170.198998 58.136006 217.287387v319.974116C58.136006 885.034788 447.891711 1013.251366 464.344281 1021.193986a60.136979 60.136979 0 0 0 36.309119 0c17.0199-7.94262 408.477594-136.159198 408.477595-483.932483V217.287387c0-48.223049-53.329019-53.329019-53.32902-53.329019C757.086557 140.130508 528.45257 56.732999 482.49884 56.732999z" fill="white" /><path d="M691.276278 331.888045a38.578439 38.578439 0 0 0-22.6932 8.50995l-240.547917 240.547917L300.385913 453.863994a35.74179 35.74179 0 0 0-22.6932-9.64461 28.93383 28.93383 0 0 0-20.423879 9.64461 28.93383 28.93383 0 0 0 0 42.549749l170.198997 170.198998 283.664996-283.664996a31.20315 31.20315 0 0 0 0-42.54975 27.23184 27.23184 0 0 0-19.856549-8.50995z" fill="white" /></svg>